<svg xmlns="http://www.w3.org/2000/svg" width="64" height="64" viewBox="0 0 64 64"><defs><radialGradient id="g32" cx="35%" cy="25%"><stop stop-color="#fde68a"/><stop offset=".55" stop-color="#f97316"/><stop offset="1" stop-color="#7f1d1d"/></radialGradient><filter id="s32" x="-20%" y="-20%" width="140%" height="140%"><feDropShadow dx="0" dy="2" stdDeviation="1.3" flood-color="#7f1d1d" flood-opacity=".45"/></filter></defs><circle cx="32" cy="32" r="25" fill="#f97316" opacity=".12"/><g><path d="M31 52 C28 40 19 35 13 38 C18 28 28 30 32 43 Z" fill="#f97316"/><path d="M34 52 C36 39 46 32 53 36 C47 27 37 29 32 43 Z" fill="#f97316"/><path d="M32 48 C29 33 30 19 36 11 C45 22 39 36 32 48 Z" fill="#fde68a"/><path d="M31 50 C29 38 23 27 16 23 C27 20 33 31 34 48 Z" fill="#f97316"/><path d="M33 50 C36 38 42 27 49 23 C38 20 31 31 30 48 Z" fill="#f97316"/><path d="M32 18 L32 53" stroke="#7f1d1d" stroke-width="3" stroke-linecap="round"/><circle cx="32" cy="18" r="6" fill="url(#g32)"/><circle cx="24" cy="25" r="2" fill="#fde68a"/><circle cx="42" cy="26" r="2" fill="#fde68a"/></g></svg>
