<svg xmlns="http://www.w3.org/2000/svg" viewBox="0 0 64 64" width="64" height="64"><rect width="64" height="64" rx="10" fill="#0d6a3a"/><rect x="20" y="32" width="24" height="22" fill="#fff5e0"/><path d="M14 34 Q14 22 32 18 Q50 22 50 34 Z" fill="#fff5e0"/><circle cx="32" cy="22" r="6" fill="#fff5e0"/><rect x="31" y="10" width="2" height="6" fill="#ffd740"/><polygon points="32,10 38,12 32,14" fill="#ffd740"/><rect x="8" y="28" width="4" height="26" fill="#fff5e0"/><polygon points="6,28 14,28 10,18" fill="#ffd740"/><rect x="52" y="28" width="4" height="26" fill="#fff5e0"/><polygon points="50,28 58,28 54,18" fill="#ffd740"/><path d="M28 54 L28 44 Q32 38 36 44 L36 54 Z" fill="#3a2010"/></svg>