<svg xmlns="http://www.w3.org/2000/svg" viewBox="0 0 64 64" width="64" height="64"><rect width="64" height="64" rx="10" fill="#1a3a5a"/><rect x="10" y="32" width="44" height="22" fill="#9aa0a8"/><rect x="10" y="28" width="4" height="4" fill="#9aa0a8"/><rect x="16" y="28" width="4" height="4" fill="#9aa0a8"/><rect x="22" y="28" width="4" height="4" fill="#9aa0a8"/><rect x="28" y="28" width="4" height="4" fill="#9aa0a8"/><rect x="34" y="28" width="4" height="4" fill="#9aa0a8"/><rect x="40" y="28" width="4" height="4" fill="#9aa0a8"/><rect x="46" y="28" width="4" height="4" fill="#9aa0a8"/><rect x="52" y="28" width="4" height="4" fill="#9aa0a8"/><rect x="22" y="20" width="8" height="14" fill="#9aa0a8"/><rect x="34" y="14" width="10" height="20" fill="#9aa0a8"/><polygon points="34,14 44,14 39,4" fill="#b71c1c"/><rect x="38" y="20" width="2" height="6" fill="#1a1a2e"/><rect x="26" y="40" width="6" height="14" fill="#3a3a40"/></svg>