<svg xmlns="http://www.w3.org/2000/svg" viewBox="0 0 64 64" width="64" height="64"><rect width="64" height="64" rx="10" fill="#fff"/><circle cx="32" cy="32" r="22" fill="none" stroke="#000" stroke-width="2"/><path d="M32 10 A22 22 0 0 1 32 54 A11 11 0 0 1 32 32 A11 11 0 0 0 32 10" fill="#0044cc"/><path d="M32 54 A22 22 0 0 1 32 10 A11 11 0 0 1 32 32 A11 11 0 0 0 32 54" fill="#cc0000"/><rect x="3" y="14" width="6" height="1.5" fill="#000"/><rect x="3" y="17" width="6" height="1.5" fill="#000"/><rect x="3" y="20" width="6" height="1.5" fill="#000"/><rect x="55" y="14" width="6" height="1.5" fill="#000"/><rect x="55" y="17" width="2" height="1.5" fill="#000"/><rect x="59" y="17" width="2" height="1.5" fill="#000"/><rect x="55" y="20" width="6" height="1.5" fill="#000"/></svg>