<svg xmlns="http://www.w3.org/2000/svg" viewBox="0 0 64 64" width="64" height="64"><rect width="64" height="64" rx="10" fill="#1a1a3a"/><path d="M14 36 Q14 22 20 22 Q26 22 26 36 Q22 38 20 38 Q18 38 14 36" fill="#b71c1c" stroke="#3a0a0a" stroke-width="1.5"/><rect x="14" y="36" width="12" height="14" fill="#dcdcdc" stroke="#5a5a60"/><path d="M28 32 Q28 14 32 14 Q36 14 36 32 Q34 36 32 36 Q30 36 28 32" fill="#ffd740" stroke="#5a3a10" stroke-width="1.5"/><rect x="28" y="32" width="8" height="20" fill="#dcdcdc" stroke="#5a5a60"/><path d="M38 36 Q38 22 44 22 Q50 22 50 36 Q46 38 44 38 Q42 38 38 36" fill="#1976d2" stroke="#0d47a1" stroke-width="1.5"/><rect x="38" y="36" width="12" height="14" fill="#dcdcdc" stroke="#5a5a60"/><rect x="19" y="14" width="2" height="10" fill="#ffd740"/><rect x="33" y="6" width="2" height="10" fill="#ffd740"/><rect x="43" y="14" width="2" height="10" fill="#ffd740"/><rect x="0" y="50" width="64" height="6" fill="#3a3a4a"/></svg>