<svg t="1774618659540" class="icon" viewBox="0 0 1024 1024" version="1.1" xmlns="http://www.w3.org/2000/svg" p-id="1736" width="200" height="200"><path d="M896 128H128A85.426667 85.426667 0 0 0 42.666667 213.333333v512a85.426667 85.426667 0 0 0 85.333333 85.333334v106.666666a21.333333 21.333333 0 0 0 36.42 15.086667L286.166667 810.666667H896a85.426667 85.426667 0 0 0 85.333333-85.333334V213.333333a85.426667 85.426667 0 0 0-85.333333-85.333333zM298.666667 512a42.666667 42.666667 0 1 1 42.666666-42.666667 42.666667 42.666667 0 0 1-42.666666 42.666667z m213.333333 0a42.666667 42.666667 0 1 1 42.666667-42.666667 42.666667 42.666667 0 0 1-42.666667 42.666667z m213.333333 0a42.666667 42.666667 0 1 1 42.666667-42.666667 42.666667 42.666667 0 0 1-42.666667 42.666667z" fill="#ffffff" p-id="1737"></path></svg>
