<svg xmlns="http://www.w3.org/2000/svg" viewBox="0 0 1024 1024">
  <path fill="#ffffff" d="M814 958.5c-79.9 0-193-88.5-238.9-184.6H448.9c-45.7 96.1-158.7 182.6-238.9 182.6-145.7 0-178.5-284.7-178.5-384.4 0-130.9 104.7-237.6 233.4-237.6h494.2c128.7 0 233.4 106.2 233.4 236.5 0 100.5-32.8 387.5-178.5 387.5z"/>
  <path fill="#090a0c" d="M430.9 719h162.1c11.3 0 21.5 7.4 25.6 18 33.5 85.8 138.5 166.8 195.4 166.8 82.3 0 123.6-213.4 123.6-332.7 0-100-80.1-181.7-178.5-181.7H264.9c-96.7 0-178.5 84.1-178.5 182.9 0 134.6 44 329.5 123.6 329.5 57.3 0 162.3-80.2 195.4-165 4.1-10.6 14.2-17.8 25.5-17.8z"/>
  <path fill="#090a0c" d="M249.5 486.5c0-7.6 6.1-13.7 13.7-13.7s13.7 6.1 13.7 13.7v192.2c0 7.6-6.1 13.7-13.7 13.7s-13.7-6.1-13.7-13.7V486.5zM148.2 581.7c0-7.6 6.1-13.7 13.7-13.7h192.2c7.6 0 13.7 6.1 13.7 13.7s-6.1 13.7-13.7 13.7H161.9c-7.6 0-13.7-6.2-13.7-13.7z"/>
  <circle cx="768.6" cy="536.8" r="19.6" fill="#090a0c"/>
  <circle cx="843.9" cy="611.9" r="19.6" fill="#090a0c"/>
  <circle cx="693.4" cy="611.9" r="19.6" fill="#090a0c"/>
  <circle cx="768.6" cy="687.3" r="19.6" fill="#090a0c"/>
</svg>
