<svg xmlns="http://www.w3.org/2000/svg" viewBox="0 0 64 64" width="64" height="64"><rect width="64" height="64" rx="10" fill="#1a2a3a"/><ellipse cx="32" cy="56" rx="22" ry="3" fill="rgba(0,0,0,0.45)"/><rect x="10" y="30" width="44" height="24" fill="#dcdcdc"/><rect x="10" y="30" width="44" height="4" fill="#a0a0a0"/><polygon points="8,30 56,30 32,14" fill="#4a6a8a"/><rect x="12" y="36" width="4" height="14" fill="#1a2a3a"/><rect x="20" y="36" width="4" height="14" fill="#1a2a3a"/><rect x="28" y="36" width="4" height="14" fill="#1a2a3a"/><rect x="36" y="36" width="4" height="14" fill="#1a2a3a"/><rect x="44" y="36" width="4" height="14" fill="#1a2a3a"/><rect x="52" y="36" width="4" height="14" fill="#1a2a3a"/><rect x="12" y="20" width="3" height="10" fill="#dcdcdc"/><rect x="20" y="20" width="3" height="10" fill="#dcdcdc"/><rect x="28" y="20" width="3" height="10" fill="#dcdcdc"/><rect x="36" y="20" width="3" height="10" fill="#dcdcdc"/><rect x="44" y="20" width="3" height="10" fill="#dcdcdc"/><rect x="52" y="20" width="3" height="10" fill="#dcdcdc"/><rect x="26" y="42" width="12" height="8" fill="#7a3a3a"/><rect x="32" y="42" width="1" height="8" fill="#3a1010"/><rect x="28" y="44" width="3" height="1" fill="#ffd740"/><rect x="2" y="36" width="8" height="18" fill="#dcdcdc"/><rect x="54" y="36" width="8" height="18" fill="#dcdcdc"/></svg>