<svg xmlns="http://www.w3.org/2000/svg" viewBox="0 0 64 64" width="64" height="64"><rect width="64" height="64" rx="10" fill="#2a2a3e"/><ellipse cx="32" cy="56" rx="22" ry="3" fill="rgba(0,0,0,0.45)"/><rect x="10" y="32" width="44" height="22" fill="#7a5a3a"/><rect x="10" y="32" width="44" height="4" fill="#4a3520"/><polygon points="6,32 32,16 58,32" fill="#9a3a3a"/><polygon points="6,32 58,32 32,18" fill="#7a2828" opacity="0.6"/><rect x="28" y="40" width="8" height="14" fill="#3a2a18"/><rect x="14" y="40" width="6" height="6" fill="#222"/><rect x="44" y="40" width="6" height="6" fill="#222"/><line x1="22" y1="20" x2="42" y2="32" stroke="#cfd8dc" stroke-width="2"/><line x1="42" y1="20" x2="22" y2="32" stroke="#cfd8dc" stroke-width="2"/><rect x="20" y="18" width="6" height="3" fill="#ffd740"/><rect x="38" y="18" width="6" height="3" fill="#ffd740"/><rect x="4" y="26" width="6" height="28" fill="#7a5a3a"/><rect x="54" y="26" width="6" height="28" fill="#7a5a3a"/><polygon points="2,26 7,18 12,26" fill="#9a3a3a"/><polygon points="52,26 57,18 62,26" fill="#9a3a3a"/><rect x="0" y="52" width="64" height="4" fill="#3a2a18"/></svg>