<svg xmlns="http://www.w3.org/2000/svg" viewBox="0 0 64 64" width="64" height="64"><rect width="64" height="64" rx="10" fill="#3a2a18"/><rect x="2" y="2" width="60" height="60" rx="8" fill="#5a3d20"/><ellipse cx="32" cy="56" rx="22" ry="3" fill="rgba(0,0,0,0.45)"/><rect x="14" y="30" width="4" height="4" fill="#a0866a"/><rect x="20" y="30" width="4" height="4" fill="#a0866a"/><rect x="26" y="30" width="4" height="4" fill="#a0866a"/><rect x="32" y="30" width="4" height="4" fill="#a0866a"/><rect x="38" y="30" width="4" height="4" fill="#a0866a"/><rect x="44" y="30" width="4" height="4" fill="#a0866a"/><rect x="14" y="34" width="36" height="20" fill="#a0866a"/><rect x="14" y="34" width="36" height="3" fill="#6a523a"/><rect x="28" y="44" width="8" height="10" fill="#3a2a18"/><rect x="29" y="46" width="2" height="5" fill="#ffd740"/><rect x="33" y="46" width="2" height="5" fill="#ffd740"/><rect x="26" y="24" width="12" height="10" fill="#a0866a"/><rect x="26" y="24" width="12" height="3" fill="#6a523a"/><polygon points="22,23 32,12 42,23" fill="#b71c1c"/><rect x="31" y="8" width="1" height="6" fill="#ffd740"/><polygon points="32,8 38,10 32,12" fill="#ffd740"/><rect x="29" y="30" width="2" height="4" fill="#3a2a18"/><rect x="33" y="30" width="2" height="4" fill="#3a2a18"/></svg>