<svg xmlns="http://www.w3.org/2000/svg" viewBox="0 0 64 64" width="64" height="64"><rect width="64" height="64" rx="10" fill="#3a2a18"/><rect x="2" y="2" width="60" height="60" rx="8" fill="#5a3d20"/><ellipse cx="32" cy="56" rx="22" ry="3" fill="rgba(0,0,0,0.45)"/><rect x="14" y="30" width="4" height="4" fill="#a0866a"/><rect x="20" y="30" width="4" height="4" fill="#a0866a"/><rect x="26" y="30" width="4" height="4" fill="#a0866a"/><rect x="32" y="30" width="4" height="4" fill="#a0866a"/><rect x="38" y="30" width="4" height="4" fill="#a0866a"/><rect x="44" y="30" width="4" height="4" fill="#a0866a"/><rect x="14" y="34" width="36" height="20" fill="#a0866a"/><rect x="14" y="34" width="36" height="3" fill="#6a523a"/><rect x="28" y="44" width="8" height="10" fill="#3a2a18"/><rect x="29" y="46" width="2" height="5" fill="#ffd740"/><rect x="33" y="46" width="2" height="5" fill="#ffd740"/><rect x="8" y="28" width="8" height="26" fill="#a0866a"/><rect x="8" y="28" width="8" height="3" fill="#6a523a"/><polygon points="6,29 12,22 18,29" fill="#b71c1c"/><rect x="11" y="36" width="2" height="3" fill="#3a2a18"/><rect x="48" y="28" width="8" height="26" fill="#a0866a"/><rect x="48" y="28" width="8" height="3" fill="#6a523a"/><polygon points="46,29 52,22 58,29" fill="#b71c1c"/><rect x="51" y="36" width="2" height="3" fill="#3a2a18"/><rect x="26" y="18" width="12" height="16" fill="#a0866a"/><rect x="26" y="18" width="12" height="3" fill="#6a523a"/><polygon points="22,17 32,6 42,17" fill="#b71c1c"/><rect x="31" y="2" width="1" height="6" fill="#ffd740"/><polygon points="32,2 38,4 32,6" fill="#ffd740"/><rect x="29" y="24" width="2" height="4" fill="#3a2a18"/><rect x="33" y="24" width="2" height="4" fill="#3a2a18"/></svg>