<svg xmlns="http://www.w3.org/2000/svg" viewBox="0 0 64 64" width="64" height="64"><rect width="64" height="64" rx="10" fill="#3a2a14"/><rect x="2" y="34" width="60" height="22" fill="#6a4a1a"/><rect x="2" y="38" width="60" height="2" fill="#4a3010"/><rect x="2" y="42" width="60" height="2" fill="#4a3010"/><rect x="2" y="46" width="60" height="2" fill="#4a3010"/><rect x="2" y="50" width="60" height="2" fill="#4a3010"/><rect x="6" y="36" width="2" height="6" fill="#cfa645"/><polygon points="5,36 9,36 7,32" fill="#ffd740"/><rect x="13" y="36" width="2" height="6" fill="#cfa645"/><polygon points="12,36 16,36 14,32" fill="#ffd740"/><rect x="20" y="36" width="2" height="6" fill="#cfa645"/><polygon points="19,36 23,36 21,32" fill="#ffd740"/><rect x="6" y="18" width="20" height="16" fill="#9a3a2a"/><polygon points="4,18 28,18 16,8" fill="#7a2828"/><rect x="14" y="24" width="4" height="10" fill="#3a2a18"/><rect x="9" y="22" width="4" height="4" fill="#ffd740"/><rect x="19" y="22" width="4" height="4" fill="#ffd740"/><ellipse cx="32" cy="56" rx="22" ry="3" fill="rgba(0,0,0,0.45)"/></svg>