<svg xmlns="http://www.w3.org/2000/svg" viewBox="0 0 64 64" width="64" height="64"><rect width="64" height="64" rx="10" fill="#3a2a14"/><rect x="2" y="34" width="60" height="22" fill="#6a4a1a"/><rect x="2" y="38" width="60" height="2" fill="#4a3010"/><rect x="2" y="42" width="60" height="2" fill="#4a3010"/><rect x="2" y="46" width="60" height="2" fill="#4a3010"/><rect x="2" y="50" width="60" height="2" fill="#4a3010"/><rect x="6" y="36" width="2" height="6" fill="#cfa645"/><polygon points="5,36 9,36 7,32" fill="#ffd740"/><rect x="13" y="36" width="2" height="6" fill="#cfa645"/><polygon points="12,36 16,36 14,32" fill="#ffd740"/><rect x="20" y="36" width="2" height="6" fill="#cfa645"/><polygon points="19,36 23,36 21,32" fill="#ffd740"/><rect x="27" y="36" width="2" height="6" fill="#cfa645"/><polygon points="26,36 30,36 28,32" fill="#ffd740"/><rect x="34" y="36" width="2" height="6" fill="#cfa645"/><polygon points="33,36 37,36 35,32" fill="#ffd740"/><rect x="41" y="36" width="2" height="6" fill="#cfa645"/><polygon points="40,36 44,36 42,32" fill="#ffd740"/><rect x="48" y="36" width="2" height="6" fill="#cfa645"/><polygon points="47,36 51,36 49,32" fill="#ffd740"/><rect x="55" y="36" width="2" height="6" fill="#cfa645"/><polygon points="54,36 58,36 56,32" fill="#ffd740"/><rect x="6" y="42" width="2" height="6" fill="#cfa645"/><polygon points="5,42 9,42 7,38" fill="#ffd740"/><rect x="13" y="42" width="2" height="6" fill="#cfa645"/><polygon points="12,42 16,42 14,38" fill="#ffd740"/><rect x="20" y="42" width="2" height="6" fill="#cfa645"/><polygon points="19,42 23,42 21,38" fill="#ffd740"/><rect x="27" y="42" width="2" height="6" fill="#cfa645"/><polygon points="26,42 30,42 28,38" fill="#ffd740"/><rect x="34" y="42" width="2" height="6" fill="#cfa645"/><polygon points="33,42 37,42 35,38" fill="#ffd740"/><rect x="41" y="42" width="2" height="6" fill="#cfa645"/><polygon points="40,42 44,42 42,38" fill="#ffd740"/><rect x="6" y="18" width="20" height="16" fill="#9a3a2a"/><polygon points="4,18 28,18 16,8" fill="#7a2828"/><rect x="14" y="24" width="4" height="10" fill="#3a2a18"/><rect x="9" y="22" width="4" height="4" fill="#ffd740"/><rect x="19" y="22" width="4" height="4" fill="#ffd740"/><rect x="42" y="14" width="10" height="20" fill="#9e9e9e"/><ellipse cx="47" cy="14" rx="5" ry="3" fill="#bdbdbd"/><rect x="54" y="20" width="6" height="14" fill="#bdbdbd"/><ellipse cx="57" cy="20" rx="3" ry="2" fill="#cfd8dc"/><circle cx="44" cy="6" r="3" fill="#ffd740"/><circle cx="44" cy="6" r="1.5" fill="#fff"/><ellipse cx="32" cy="56" rx="22" ry="3" fill="rgba(0,0,0,0.45)"/></svg>