<svg xmlns="http://www.w3.org/2000/svg" viewBox="0 0 64 64" width="64" height="64"><rect width="64" height="64" rx="10" fill="#2a1f12"/><rect x="0" y="50" width="64" height="14" fill="#4a3a20"/><polygon points="2,52 22,18 38,30 50,14 62,52" fill="#5a4a30" stroke="#3a2a18" stroke-width="1"/><polygon points="20,52 28,42 36,52" fill="#1a1208"/><rect x="22" y="50" width="12" height="2" fill="#3a2a18"/><line x1="0" y1="58" x2="64" y2="58" stroke="#7a5a3a" stroke-width="1"/><line x1="0" y1="60" x2="64" y2="60" stroke="#7a5a3a" stroke-width="1"/><rect x="40" y="50" width="14" height="6" fill="#7a4a20" stroke="#3a2010"/><circle cx="44" cy="58" r="2" fill="#3a2a18"/><circle cx="50" cy="58" r="2" fill="#3a2a18"/><circle cx="4" cy="56" r="2" fill="#ffd740" stroke="#a07a10"/><circle cx="11" cy="57" r="2" fill="#ffd740" stroke="#a07a10"/><circle cx="18" cy="56" r="2" fill="#ffd740" stroke="#a07a10"/><circle cx="25" cy="57" r="2" fill="#ffd740" stroke="#a07a10"/><circle cx="32" cy="56" r="2" fill="#ffd740" stroke="#a07a10"/><circle cx="39" cy="57" r="2" fill="#ffd740" stroke="#a07a10"/><circle cx="46" cy="56" r="2" fill="#ffd740" stroke="#a07a10"/><circle cx="53" cy="57" r="2" fill="#ffd740" stroke="#a07a10"/><circle cx="4" cy="56" r="2" fill="#ffd740" stroke="#a07a10"/><circle cx="11" cy="57" r="2" fill="#ffd740" stroke="#a07a10"/><circle cx="18" cy="56" r="2" fill="#ffd740" stroke="#a07a10"/><circle cx="25" cy="57" r="2" fill="#ffd740" stroke="#a07a10"/><circle cx="32" cy="56" r="2" fill="#ffd740" stroke="#a07a10"/><circle cx="39" cy="57" r="2" fill="#ffd740" stroke="#a07a10"/><text x="20" y="36" fill="#ffd740" font-size="9" font-weight="bold" font-family="serif">$</text><circle cx="28" cy="30" r="0.8" fill="#ffe082"/><circle cx="36" cy="26" r="0.8" fill="#ffe082"/><circle cx="24" cy="24" r="0.8" fill="#ffe082"/><circle cx="44" cy="32" r="0.8" fill="#ffe082"/><ellipse cx="32" cy="56" rx="22" ry="3" fill="rgba(0,0,0,0.45)"/></svg>