<svg xmlns="http://www.w3.org/2000/svg" viewBox="0 0 64 64" width="64" height="64"><rect width="64" height="64" rx="10" fill="#1a2a14"/><rect x="0" y="50" width="64" height="14" fill="#3a4020"/><rect x="6" y="20" width="2" height="20" fill="#4a3010"/><polygon points="0,28 14,28 7,12" fill="#3a6028"/><rect x="14" y="32" width="26" height="20" fill="#7a4a20"/><polygon points="12,32 42,32 27,18" fill="#5a3010"/><rect x="22" y="38" width="6" height="14" fill="#3a2010"/><rect x="14" y="36" width="26" height="1" fill="#5a3010"/><rect x="14" y="40" width="26" height="1" fill="#5a3010"/><rect x="14" y="44" width="26" height="1" fill="#5a3010"/><rect x="14" y="48" width="26" height="1" fill="#5a3010"/><ellipse cx="50" cy="50" rx="8" ry="3" fill="#7a4a20" stroke="#3a2010" stroke-width="0.5"/><ellipse cx="50" cy="50" rx="2.5" ry="1" fill="#a06c40"/><ellipse cx="55" cy="50" rx="8" ry="3" fill="#7a4a20" stroke="#3a2010" stroke-width="0.5"/><ellipse cx="55" cy="50" rx="2.5" ry="1" fill="#a06c40"/><ellipse cx="50" cy="46" rx="8" ry="3" fill="#7a4a20" stroke="#3a2010" stroke-width="0.5"/><ellipse cx="50" cy="46" rx="2.5" ry="1" fill="#a06c40"/><ellipse cx="55" cy="46" rx="8" ry="3" fill="#7a4a20" stroke="#3a2010" stroke-width="0.5"/><ellipse cx="55" cy="46" rx="2.5" ry="1" fill="#a06c40"/><line x1="6" y1="46" x2="2" y2="32" stroke="#5a3010" stroke-width="2"/><polygon points="0,32 6,28 8,34" fill="#cfd8dc"/><ellipse cx="32" cy="56" rx="22" ry="3" fill="rgba(0,0,0,0.45)"/></svg>