<svg xmlns="http://www.w3.org/2000/svg" viewBox="0 0 64 64" width="64" height="64"><rect width="64" height="64" rx="10" fill="#2a2a30"/><rect x="0" y="50" width="64" height="14" fill="#3a3a40"/><polygon points="20,40 40,38 50,46 44,54 20,54 12,46" fill="#bdbdbd" stroke="#5a6068" stroke-width="1"/><polygon points="22,42 36,40 32,46" fill="#dcdcdc"/><polygon points="8,38 12,39 11,42 8,43 5,42 4,39" fill="#9aa0a8" stroke="#5a6068" stroke-width="0.5"/><polygon points="19,42 24,43 23,47 19,48 15,47 14,43" fill="#9aa0a8" stroke="#5a6068" stroke-width="0.5"/><polygon points="30,46 36,47 35,52 30,53 25,52 24,47" fill="#9aa0a8" stroke="#5a6068" stroke-width="0.5"/><polygon points="41,38 45,39 44,42 41,43 38,42 37,39" fill="#9aa0a8" stroke="#5a6068" stroke-width="0.5"/><polygon points="52,42 57,43 56,47 52,48 48,47 47,43" fill="#9aa0a8" stroke="#5a6068" stroke-width="0.5"/><polygon points="13,46 19,47 18,52 13,53 8,52 7,47" fill="#9aa0a8" stroke="#5a6068" stroke-width="0.5"/><polygon points="24,38 28,39 27,42 24,43 21,42 20,39" fill="#9aa0a8" stroke="#5a6068" stroke-width="0.5"/><polygon points="35,42 40,43 39,47 35,48 31,47 30,43" fill="#9aa0a8" stroke="#5a6068" stroke-width="0.5"/><polygon points="46,46 52,47 51,52 46,53 41,52 40,47" fill="#9aa0a8" stroke="#5a6068" stroke-width="0.5"/><polygon points="57,38 61,39 60,42 57,43 54,42 53,39" fill="#9aa0a8" stroke="#5a6068" stroke-width="0.5"/><polygon points="18,42 23,43 22,47 18,48 14,47 13,43" fill="#9aa0a8" stroke="#5a6068" stroke-width="0.5"/><polygon points="29,46 35,47 34,52 29,53 24,52 23,47" fill="#9aa0a8" stroke="#5a6068" stroke-width="0.5"/><line x1="10" y1="20" x2="20" y2="34" stroke="#7a4a20" stroke-width="2"/><polygon points="6,16 14,12 18,20 10,24" fill="#cfd8dc" stroke="#5a6068"/><rect x="44" y="18" width="4" height="20" fill="#7a4a20"/><polygon points="40,18 52,18 46,8" fill="#9a4a3a"/><circle cx="56" cy="34" r="4" fill="#7a4a20"/><circle cx="56" cy="34" r="1.5" fill="#3a2010"/><circle cx="30" cy="36" r="0.8" fill="#ffd740"/><circle cx="24" cy="50" r="0.8" fill="#ffd740"/><circle cx="42" cy="50" r="0.8" fill="#ffd740"/><circle cx="10" cy="50" r="0.8" fill="#ffd740"/><ellipse cx="32" cy="56" rx="22" ry="3" fill="rgba(0,0,0,0.45)"/></svg>