<svg xmlns="http://www.w3.org/2000/svg" viewBox="0 0 64 64" width="64" height="64"><rect width="64" height="64" rx="10" fill="#2a2a30"/><rect x="0" y="50" width="64" height="14" fill="#3a3a40"/><polygon points="20,40 40,38 50,46 44,54 20,54 12,46" fill="#bdbdbd" stroke="#5a6068" stroke-width="1"/><polygon points="22,42 36,40 32,46" fill="#dcdcdc"/><polygon points="8,38 12,39 11,42 8,43 5,42 4,39" fill="#9aa0a8" stroke="#5a6068" stroke-width="0.5"/><polygon points="19,42 24,43 23,47 19,48 15,47 14,43" fill="#9aa0a8" stroke="#5a6068" stroke-width="0.5"/><polygon points="30,46 36,47 35,52 30,53 25,52 24,47" fill="#9aa0a8" stroke="#5a6068" stroke-width="0.5"/><line x1="10" y1="20" x2="20" y2="34" stroke="#7a4a20" stroke-width="2"/><polygon points="6,16 14,12 18,20 10,24" fill="#cfd8dc" stroke="#5a6068"/><ellipse cx="32" cy="56" rx="22" ry="3" fill="rgba(0,0,0,0.45)"/></svg>