<svg xmlns="http://www.w3.org/2000/svg" viewBox="0 0 64 64" width="64" height="64"><rect width="64" height="64" rx="10" fill="#2a2820"/><ellipse cx="32" cy="56" rx="22" ry="3" fill="rgba(0,0,0,0.45)"/><rect x="6" y="24" width="52" height="30" fill="#7a5a3a"/><polygon points="4,24 60,24 32,12" fill="#5a3a20"/><rect x="26" y="36" width="12" height="18" fill="#3a2010"/><rect x="26" y="36" width="12" height="2" fill="#7a4a20"/><rect x="6" y="28" width="52" height="1" fill="#5a3a20"/><rect x="6" y="32" width="52" height="1" fill="#5a3a20"/><rect x="6" y="36" width="52" height="1" fill="#5a3a20"/><rect x="6" y="40" width="52" height="1" fill="#5a3a20"/><rect x="6" y="44" width="52" height="1" fill="#5a3a20"/><rect x="6" y="48" width="52" height="1" fill="#5a3a20"/><rect x="46" y="46" width="8" height="8" fill="#a06c40" stroke="#5a3010"/><line x1="46" y1="50" x2="54" y2="50" stroke="#5a3010"/><line x1="50" y1="46" x2="50" y2="54" stroke="#5a3010"/></svg>